<svg width="80" height="80" viewBox="0 0 80 80" fill="none" xmlns="http://www.w3.org/2000/svg">
<g clip-path="url(#clip0_608_207)">
<mask id="mask0_608_207" style="mask-type:luminance" maskUnits="userSpaceOnUse" x="0" y="0" width="80" height="80">
<path d="M79.5 0.5V79.5H0.5V0.5H79.5Z" fill="white" stroke="white"/>
</mask>
<g mask="url(#mask0_608_207)">
<path d="M70 0H10C4.47715 0 0 4.47715 0 10V70C0 75.5229 4.47715 80 10 80H70C75.5229 80 80 75.5229 80 70V10C80 4.47715 75.5229 0 70 0Z" fill="#A78BFA"/>
<path d="M41.1852 51.037C41.1852 51.037 36.835 51.6378 35.3425 56.7833C35.2648 57.0509 35.1773 57.3339 35.0993 57.6296M35.0993 57.6296C34.9531 58.1836 34.8405 58.7821 34.8889 59.4074C35.2306 61.4846 36.9628 63.2593 39.1249 63.2593C41.5542 63.2593 43.2145 61.2466 42.7309 58.8148C42.2512 56.4026 41.5938 55.6296 39.1645 55.6296C38.623 55.6296 38.1102 55.6659 37.6404 55.7496C36.9252 55.8084 35.4157 56.2667 35.0993 57.6296Z" stroke="#03141F" stroke-width="2" stroke-linecap="round" stroke-linejoin="round"/>
<path d="M13.276 12.7583C20.2927 11.4229 26.9229 12.0763 32.0211 14.1752C37.1237 16.276 40.6391 19.7966 41.5719 24.1762C42.5047 28.5559 40.7292 33.2031 36.9254 37.2006C33.713 40.5767 29.08 43.455 23.5251 45.2553C26.9019 43.3087 29.7093 40.8794 31.7458 38.1909C34.6474 34.3599 36.0025 29.9772 35.1559 25.7338C34.287 21.3783 31.2434 17.892 26.9528 15.6547C23.0211 13.6046 18.0227 12.5896 12.6051 12.894C12.8279 12.8477 13.0513 12.801 13.276 12.7583Z" fill="white" stroke="white"/>
<path opacity="0.9" d="M23.1111 23.1852C3.67729 42.619 -0.652303 69.7295 4.82233 75.2044C9.20207 79.5837 27.4592 77.6244 44.537 66.7155C46.5435 65.4336 48.5339 64.0283 50.4835 62.4951M67.581 43.1899C77.7615 26.5121 79.4689 9.09822 75.1985 4.82803C71.4209 1.05052 57.31 1.97338 42.5401 9.29274" stroke="#03141F" stroke-width="2" stroke-linecap="round" stroke-linejoin="round"/>
<path d="M33.1111 59.8519C32.3212 63.8862 25.4507 64.7177 25.4815 60.2222C25.5122 55.7267 32.772 58.2356 32.5185 54C32.2782 49.9844 26.065 49.9342 25.4815 54.4444" stroke="#03141F" stroke-width="2" stroke-linecap="round" stroke-linejoin="round"/>
<path d="M46.7408 43.8519V33.1111C46.7408 30.5338 48.8301 28.4444 51.4074 28.4444H58.819M46.7408 28.4715V23.3333C46.7408 20.756 48.8301 18.6667 51.4074 18.6667H64" stroke="#03141F" stroke-width="2" stroke-linecap="round" stroke-linejoin="round"/>
<path d="M59.9996 49.1692C60.0317 49.3135 60.0648 49.4565 60.1012 49.597C60.3161 50.4265 60.6206 51.228 61.069 51.7972C61.4497 52.2804 62.0188 52.6496 62.609 52.9339C63.1672 53.2028 63.7822 53.4107 64.3561 53.5726C63.7821 53.7345 63.1673 53.9433 62.609 54.2122C62.0188 54.4966 61.4497 54.8667 61.069 55.3499C60.6208 55.919 60.316 56.7198 60.1012 57.5491C60.0649 57.6893 60.0317 57.8319 59.9996 57.9759C59.9676 57.832 59.9344 57.6893 59.8981 57.5491C59.6832 56.7197 59.3786 55.919 58.9303 55.3499C58.5495 54.8666 57.9805 54.4966 57.3903 54.2122C56.8319 53.9432 56.2172 53.7345 55.6432 53.5726C56.2172 53.4107 56.832 53.2028 57.3903 52.9339C57.9804 52.6496 58.5495 52.2803 58.9303 51.7972C59.3787 51.228 59.6832 50.4265 59.8981 49.597C59.9345 49.4565 59.9676 49.3135 59.9996 49.1692Z" fill="white" stroke="white"/>
</g>
</g>
<defs>
<clipPath id="clip0_608_207">
<rect width="80" height="80" fill="white"/>
</clipPath>
</defs>
</svg>
